<svg xmlns="http://www.w3.org/2000/svg" viewBox="0 0 256 256" role="img" aria-label="Vision icon">
  <defs>
    <linearGradient id="bg" x1="48" y1="32" x2="216" y2="224" gradientUnits="userSpaceOnUse">
      <stop offset="0" stop-color="#141923"/>
      <stop offset="0.55" stop-color="#0b111b"/>
      <stop offset="1" stop-color="#111827"/>
    </linearGradient>
    <linearGradient id="iris" x1="80" y1="80" x2="176" y2="176" gradientUnits="userSpaceOnUse">
      <stop offset="0" stop-color="#66f4ff"/>
      <stop offset="0.45" stop-color="#3aa8ff"/>
      <stop offset="1" stop-color="#7c5cff"/>
    </linearGradient>
    <linearGradient id="eye" x1="36" y1="128" x2="220" y2="128" gradientUnits="userSpaceOnUse">
      <stop offset="0" stop-color="#c8fbff"/>
      <stop offset="0.5" stop-color="#f7fbff"/>
      <stop offset="1" stop-color="#a9b8ff"/>
    </linearGradient>
    <filter id="glow" x="-30%" y="-30%" width="160%" height="160%">
      <feGaussianBlur stdDeviation="4" result="blur"/>
      <feMerge>
        <feMergeNode in="blur"/>
        <feMergeNode in="SourceGraphic"/>
      </feMerge>
    </filter>
  </defs>

  <rect x="20" y="20" width="216" height="216" rx="48" fill="url(#bg)"/>
  <path d="M44 128c25-38 54-56 84-56s59 18 84 56c-25 38-54 56-84 56s-59-18-84-56Z"
        fill="none" stroke="url(#eye)" stroke-width="14" stroke-linecap="round" stroke-linejoin="round"/>
  <circle cx="128" cy="128" r="45" fill="#08111b" stroke="url(#iris)" stroke-width="10" filter="url(#glow)"/>
  <circle cx="128" cy="128" r="21" fill="url(#iris)"/>
  <circle cx="137" cy="117" r="7" fill="#f7fbff"/>

  <path d="M83 93 65 75M173 93l18-18M83 163l-18 18M173 163l18 18"
        fill="none" stroke="#5ee7ff" stroke-width="7" stroke-linecap="round" opacity="0.78"/>
  <path d="M128 45v24M128 187v24M45 128h24M187 128h24"
        fill="none" stroke="#8191ff" stroke-width="7" stroke-linecap="round" opacity="0.58"/>
</svg>
